<mxfile host="app.diagrams.net" modified="2022-09-14T18:29:51.940Z" agent="5.0 (Windows NT 10.0; Win64; x64) AppleWebKit/537.36 (KHTML, like Gecko) Chrome/105.0.0.0 Safari/537.36" etag="UGh6Klkw7swJXdiD74-q" version="20.2.8" type="github">
  <diagram id="bbiFhaDfg2fhffsD3lRL" name="Page-1">
    <mxGraphModel dx="813" dy="435" grid="1" gridSize="10" guides="1" tooltips="1" connect="1" arrows="1" fold="1" page="1" pageScale="1" pageWidth="850" pageHeight="1100" math="0" shadow="0">
      <root>
        <mxCell id="0" />
        <mxCell id="1" parent="0" />
        <mxCell id="-2goSmIAwPHVgsVv3tdq-11" style="edgeStyle=orthogonalEdgeStyle;rounded=0;orthogonalLoop=1;jettySize=auto;html=1;entryX=0.5;entryY=1;entryDx=0;entryDy=0;fontSize=18;" edge="1" parent="1" source="-2goSmIAwPHVgsVv3tdq-2" target="-2goSmIAwPHVgsVv3tdq-6">
          <mxGeometry relative="1" as="geometry">
            <Array as="points">
              <mxPoint x="205" y="350" />
              <mxPoint x="420" y="350" />
            </Array>
          </mxGeometry>
        </mxCell>
        <mxCell id="-2goSmIAwPHVgsVv3tdq-2" value="&lt;p style=&quot;margin-top: 0pt; margin-bottom: 0pt; margin-left: 0in; direction: ltr; unicode-bidi: embed; word-break: normal; font-size: 18px;&quot;&gt;&lt;span style=&quot;font-family: Arial;&quot;&gt;&lt;font style=&quot;font-size: 18px;&quot;&gt;PSS PCB&lt;/font&gt;&lt;/span&gt;&lt;/p&gt;&lt;p style=&quot;margin-top: 0pt; margin-bottom: 0pt; margin-left: 0in; direction: ltr; unicode-bidi: embed; word-break: normal; font-size: 18px;&quot;&gt;&lt;span style=&quot;font-family: Arial;&quot;&gt;&lt;font style=&quot;font-size: 18px;&quot;&gt;Sensor:AS5510*2&lt;/font&gt;&lt;/span&gt;&lt;/p&gt;" style="rounded=1;whiteSpace=wrap;html=1;" vertex="1" parent="1">
          <mxGeometry x="120" y="400" width="170" height="60" as="geometry" />
        </mxCell>
        <mxCell id="-2goSmIAwPHVgsVv3tdq-12" style="edgeStyle=orthogonalEdgeStyle;rounded=0;orthogonalLoop=1;jettySize=auto;html=1;entryX=0.5;entryY=1;entryDx=0;entryDy=0;fontSize=18;" edge="1" parent="1" source="-2goSmIAwPHVgsVv3tdq-4" target="-2goSmIAwPHVgsVv3tdq-6">
          <mxGeometry relative="1" as="geometry">
            <Array as="points">
              <mxPoint x="425" y="350" />
              <mxPoint x="420" y="350" />
            </Array>
          </mxGeometry>
        </mxCell>
        <mxCell id="-2goSmIAwPHVgsVv3tdq-4" value="&lt;p style=&quot;margin-top: 0pt; margin-bottom: 0pt; margin-left: 0in; direction: ltr; unicode-bidi: embed; word-break: normal;&quot;&gt;&lt;font face=&quot;Arial&quot;&gt;&lt;span style=&quot;font-size: 18px;&quot;&gt;Sensor EVAL board LIS3MDL&lt;/span&gt;&lt;/font&gt;&lt;/p&gt;&lt;div&gt;&lt;br&gt;&lt;/div&gt;" style="rounded=1;whiteSpace=wrap;html=1;align=center;" vertex="1" parent="1">
          <mxGeometry x="340" y="400" width="170" height="60" as="geometry" />
        </mxCell>
        <mxCell id="-2goSmIAwPHVgsVv3tdq-13" style="edgeStyle=orthogonalEdgeStyle;rounded=0;orthogonalLoop=1;jettySize=auto;html=1;entryX=0.5;entryY=1;entryDx=0;entryDy=0;fontSize=18;" edge="1" parent="1" source="-2goSmIAwPHVgsVv3tdq-5" target="-2goSmIAwPHVgsVv3tdq-6">
          <mxGeometry relative="1" as="geometry">
            <Array as="points">
              <mxPoint x="635" y="350" />
              <mxPoint x="420" y="350" />
            </Array>
          </mxGeometry>
        </mxCell>
        <mxCell id="-2goSmIAwPHVgsVv3tdq-5" value="&lt;p style=&quot;margin-top: 0pt; margin-bottom: 0pt; margin-left: 0in; direction: ltr; unicode-bidi: embed; word-break: normal;&quot;&gt;&lt;font face=&quot;Arial&quot;&gt;&lt;span style=&quot;font-size: 18px;&quot;&gt;Sensor EVAL board&amp;nbsp; &amp;nbsp;TLV493D&lt;/span&gt;&lt;/font&gt;&lt;/p&gt;&lt;div&gt;&lt;br&gt;&lt;/div&gt;" style="rounded=1;whiteSpace=wrap;html=1;" vertex="1" parent="1">
          <mxGeometry x="550" y="400" width="170" height="60" as="geometry" />
        </mxCell>
        <mxCell id="-2goSmIAwPHVgsVv3tdq-10" style="edgeStyle=orthogonalEdgeStyle;rounded=0;orthogonalLoop=1;jettySize=auto;html=1;entryX=0;entryY=0.5;entryDx=0;entryDy=0;fontSize=18;" edge="1" parent="1" source="-2goSmIAwPHVgsVv3tdq-6" target="-2goSmIAwPHVgsVv3tdq-7">
          <mxGeometry relative="1" as="geometry" />
        </mxCell>
        <mxCell id="-2goSmIAwPHVgsVv3tdq-6" value="Raspberry Pi" style="rounded=1;whiteSpace=wrap;html=1;fontSize=18;" vertex="1" parent="1">
          <mxGeometry x="360" y="220" width="120" height="60" as="geometry" />
        </mxCell>
        <mxCell id="-2goSmIAwPHVgsVv3tdq-9" style="edgeStyle=orthogonalEdgeStyle;rounded=0;orthogonalLoop=1;jettySize=auto;html=1;entryX=0;entryY=0.5;entryDx=0;entryDy=0;fontSize=18;" edge="1" parent="1" source="-2goSmIAwPHVgsVv3tdq-7" target="-2goSmIAwPHVgsVv3tdq-8">
          <mxGeometry relative="1" as="geometry" />
        </mxCell>
        <mxCell id="-2goSmIAwPHVgsVv3tdq-7" value="Haptic Driver" style="rounded=1;whiteSpace=wrap;html=1;fontSize=18;" vertex="1" parent="1">
          <mxGeometry x="520" y="220" width="120" height="60" as="geometry" />
        </mxCell>
        <mxCell id="-2goSmIAwPHVgsVv3tdq-8" value="Acturator" style="rounded=1;whiteSpace=wrap;html=1;fontSize=18;" vertex="1" parent="1">
          <mxGeometry x="690" y="220" width="120" height="60" as="geometry" />
        </mxCell>
        <mxCell id="-2goSmIAwPHVgsVv3tdq-14" value="&lt;font style=&quot;font-size: 14px;&quot;&gt;I2C&lt;/font&gt;" style="shape=callout;whiteSpace=wrap;html=1;perimeter=calloutPerimeter;fontSize=18;rotation=-90;position2=0.6;" vertex="1" parent="1">
          <mxGeometry x="372.5" y="292.5" width="50" height="45" as="geometry" />
        </mxCell>
        <mxCell id="-2goSmIAwPHVgsVv3tdq-15" value="&lt;font style=&quot;font-size: 14px;&quot;&gt;I2C&lt;/font&gt;" style="shape=callout;whiteSpace=wrap;html=1;perimeter=calloutPerimeter;fontSize=18;rotation=0;position2=0.6;" vertex="1" parent="1">
          <mxGeometry x="470" y="200" width="50" height="45" as="geometry" />
        </mxCell>
      </root>
    </mxGraphModel>
  </diagram>
</mxfile>
